<svg xmlns="http://www.w3.org/2000/svg" width="980" height="560" viewBox="0 0 980 560"><rect x="0" y="0" width="980" height="560" fill="white"/><text x="490.0" y="30" font-size="20" text-anchor="middle" font-family="Arial, sans-serif" font-weight="bold">Outcome Buckets By Profile</text><line x1="90" y1="60" x2="90" y2="480" stroke="#444"/><line x1="90" y1="480" x2="940" y2="480" stroke="#444"/><rect x="175.0" y="303.6" width="113.3" height="176.4" fill="#2a9d8f"/><rect x="175.0" y="139.8" width="113.3" height="163.8" fill="#8ecae6"/><rect x="175.0" y="137.7" width="113.3" height="2.1" fill="#e76f51"/><rect x="175.0" y="112.5" width="113.3" height="25.2" fill="#f4a261"/><rect x="175.0" y="78.9" width="113.3" height="33.6" fill="#ffb703"/><rect x="175.0" y="60.0" width="113.3" height="18.9" fill="#6d597a"/><rect x="175.0" y="60.0" width="113.3" height="0.0" fill="#9d0208"/><text x="231.66666666666666" y="504" font-size="12" text-anchor="middle" font-family="Arial, sans-serif" font-weight="normal">ROOT</text><rect x="458.3" y="343.5" width="113.3" height="136.5" fill="#2a9d8f"/><rect x="458.3" y="202.8" width="113.3" height="140.7" fill="#8ecae6"/><rect x="458.3" y="125.1" width="113.3" height="77.7" fill="#e76f51"/><rect x="458.3" y="102.0" width="113.3" height="23.1" fill="#f4a261"/><rect x="458.3" y="68.4" width="113.3" height="33.6" fill="#ffb703"/><rect x="458.3" y="60.0" width="113.3" height="8.4" fill="#6d597a"/><rect x="458.3" y="60.0" width="113.3" height="0.0" fill="#9d0208"/><text x="515.0" y="504" font-size="12" text-anchor="middle" font-family="Arial, sans-serif" font-weight="normal">USER</text><rect x="741.7" y="345.6" width="113.3" height="134.4" fill="#2a9d8f"/><rect x="741.7" y="204.9" width="113.3" height="140.7" fill="#8ecae6"/><rect x="741.7" y="125.1" width="113.3" height="79.8" fill="#e76f51"/><rect x="741.7" y="102.0" width="113.3" height="23.1" fill="#f4a261"/><rect x="741.7" y="68.4" width="113.3" height="33.6" fill="#ffb703"/><rect x="741.7" y="60.0" width="113.3" height="8.4" fill="#6d597a"/><rect x="741.7" y="60.0" width="113.3" height="0.0" fill="#9d0208"/><text x="798.3333333333333" y="504" font-size="12" text-anchor="middle" font-family="Arial, sans-serif" font-weight="normal">STRICT</text><rect x="760" y="60" width="14" height="14" fill="#2a9d8f"/><text x="780" y="72" font-size="11" text-anchor="start" font-family="Arial, sans-serif" font-weight="normal">exact_success</text><rect x="760" y="82" width="14" height="14" fill="#8ecae6"/><text x="780" y="94" font-size="11" text-anchor="start" font-family="Arial, sans-serif" font-weight="normal">near_miss</text><rect x="760" y="104" width="14" height="14" fill="#e76f51"/><text x="780" y="116" font-size="11" text-anchor="start" font-family="Arial, sans-serif" font-weight="normal">permission_denied</text><rect x="760" y="126" width="14" height="14" fill="#f4a261"/><text x="780" y="138" font-size="11" text-anchor="start" font-family="Arial, sans-serif" font-weight="normal">missing_path</text><rect x="760" y="148" width="14" height="14" fill="#ffb703"/><text x="780" y="160" font-size="11" text-anchor="start" font-family="Arial, sans-serif" font-weight="normal">syntax_or_parse</text><rect x="760" y="170" width="14" height="14" fill="#6d597a"/><text x="780" y="182" font-size="11" text-anchor="start" font-family="Arial, sans-serif" font-weight="normal">semantic_miss</text><rect x="760" y="192" width="14" height="14" fill="#9d0208"/><text x="780" y="204" font-size="11" text-anchor="start" font-family="Arial, sans-serif" font-weight="normal">infra_error</text></svg>