<svg xmlns="http://www.w3.org/2000/svg" width="980" height="520" viewBox="0 0 980 520"><rect x="0" y="0" width="980" height="520" fill="white"/><text x="490.0" y="30" font-size="20" text-anchor="middle" font-family="Arial, sans-serif" font-weight="bold">Exact Success Rate By Split And Profile</text><text x="30" y="260.0" font-size="14" text-anchor="middle" font-family="Arial, sans-serif" font-weight="normal">Exact Success Rate</text><line x1="90" y1="60" x2="90" y2="440" stroke="#444"/><line x1="90" y1="440" x2="940" y2="440" stroke="#444"/><text x="196.25" y="464" font-size="12" text-anchor="middle" font-family="Arial, sans-serif" font-weight="normal">Split 1</text><rect x="112.1" y="307.0" width="46.8" height="133.0" fill="#2a9d8f"/><text x="135.475" y="299.0" font-size="10" text-anchor="middle" font-family="Arial, sans-serif" font-weight="normal">0.35</text><rect x="172.9" y="319.7" width="46.8" height="120.3" fill="#577590"/><text x="196.25" y="311.6666666666667" font-size="10" text-anchor="middle" font-family="Arial, sans-serif" font-weight="normal">0.32</text><rect x="233.6" y="319.7" width="46.8" height="120.3" fill="#e76f51"/><text x="257.025" y="311.6666666666667" font-size="10" text-anchor="middle" font-family="Arial, sans-serif" font-weight="normal">0.32</text><text x="408.75" y="464" font-size="12" text-anchor="middle" font-family="Arial, sans-serif" font-weight="normal">Split 2</text><rect x="324.6" y="267.9" width="46.8" height="172.1" fill="#2a9d8f"/><text x="347.975" y="259.92452830188677" font-size="10" text-anchor="middle" font-family="Arial, sans-serif" font-weight="normal">0.45</text><rect x="385.4" y="346.8" width="46.8" height="93.2" fill="#577590"/><text x="408.75" y="338.79245283018867" font-size="10" text-anchor="middle" font-family="Arial, sans-serif" font-weight="normal">0.25</text><rect x="446.2" y="346.8" width="46.8" height="93.2" fill="#e76f51"/><text x="469.52500000000003" y="338.79245283018867" font-size="10" text-anchor="middle" font-family="Arial, sans-serif" font-weight="normal">0.25</text><text x="621.25" y="464" font-size="12" text-anchor="middle" font-family="Arial, sans-serif" font-weight="normal">Split 3</text><rect x="537.1" y="275.3" width="46.8" height="164.7" fill="#2a9d8f"/><text x="560.475" y="267.3333333333333" font-size="10" text-anchor="middle" font-family="Arial, sans-serif" font-weight="normal">0.43</text><rect x="597.9" y="307.0" width="46.8" height="133.0" fill="#577590"/><text x="621.25" y="299.0" font-size="10" text-anchor="middle" font-family="Arial, sans-serif" font-weight="normal">0.35</text><rect x="658.6" y="307.0" width="46.8" height="133.0" fill="#e76f51"/><text x="682.025" y="299.0" font-size="10" text-anchor="middle" font-family="Arial, sans-serif" font-weight="normal">0.35</text><text x="833.75" y="464" font-size="12" text-anchor="middle" font-family="Arial, sans-serif" font-weight="normal">Split 4</text><rect x="749.6" y="257.0" width="46.8" height="183.0" fill="#2a9d8f"/><text x="772.975" y="249.03703703703707" font-size="10" text-anchor="middle" font-family="Arial, sans-serif" font-weight="normal">0.48</text><rect x="810.4" y="271.1" width="46.8" height="168.9" fill="#577590"/><text x="833.75" y="263.1111111111111" font-size="10" text-anchor="middle" font-family="Arial, sans-serif" font-weight="normal">0.44</text><rect x="871.1" y="285.2" width="46.8" height="154.8" fill="#e76f51"/><text x="894.525" y="277.1851851851852" font-size="10" text-anchor="middle" font-family="Arial, sans-serif" font-weight="normal">0.41</text><rect x="790" y="60" width="14" height="14" fill="#2a9d8f"/><text x="815" y="72" font-size="12" text-anchor="start" font-family="Arial, sans-serif" font-weight="normal">ROOT</text><rect x="790" y="84" width="14" height="14" fill="#577590"/><text x="815" y="96" font-size="12" text-anchor="start" font-family="Arial, sans-serif" font-weight="normal">USER</text><rect x="790" y="108" width="14" height="14" fill="#e76f51"/><text x="815" y="120" font-size="12" text-anchor="start" font-family="Arial, sans-serif" font-weight="normal">STRICT</text></svg>