<svg xmlns="http://www.w3.org/2000/svg" width="900" height="520" viewBox="0 0 900 520"><rect x="0" y="0" width="900" height="520" fill="white"/><text x="450.0" y="30" font-size="20" text-anchor="middle" font-family="Arial, sans-serif" font-weight="bold">Reward Delta Distribution (ROOT - STRICT)</text><line x1="90" y1="60" x2="90" y2="440" stroke="#444"/><line x1="90" y1="440" x2="860" y2="440" stroke="#444"/><rect x="90.0" y="437.7" width="36.5" height="2.3" fill="#457b9d"/><rect x="128.5" y="440.0" width="36.5" height="0.0" fill="#457b9d"/><rect x="167.0" y="433.0" width="36.5" height="7.0" fill="#457b9d"/><rect x="205.5" y="440.0" width="36.5" height="0.0" fill="#457b9d"/><rect x="244.0" y="440.0" width="36.5" height="0.0" fill="#457b9d"/><rect x="282.5" y="435.4" width="36.5" height="4.6" fill="#457b9d"/><rect x="321.0" y="433.0" width="36.5" height="7.0" fill="#457b9d"/><rect x="359.5" y="60.0" width="36.5" height="380.0" fill="#457b9d"/><rect x="398.0" y="433.0" width="36.5" height="7.0" fill="#457b9d"/><rect x="436.5" y="440.0" width="36.5" height="0.0" fill="#457b9d"/><rect x="475.0" y="440.0" width="36.5" height="0.0" fill="#457b9d"/><rect x="513.5" y="440.0" width="36.5" height="0.0" fill="#457b9d"/><rect x="552.0" y="440.0" width="36.5" height="0.0" fill="#457b9d"/><rect x="590.5" y="426.1" width="36.5" height="13.9" fill="#457b9d"/><rect x="629.0" y="437.7" width="36.5" height="2.3" fill="#457b9d"/><rect x="667.5" y="437.7" width="36.5" height="2.3" fill="#457b9d"/><rect x="706.0" y="440.0" width="36.5" height="0.0" fill="#457b9d"/><rect x="744.5" y="437.7" width="36.5" height="2.3" fill="#457b9d"/><rect x="783.0" y="440.0" width="36.5" height="0.0" fill="#457b9d"/><rect x="821.5" y="405.2" width="36.5" height="34.8" fill="#457b9d"/><text x="90" y="464" font-size="12" text-anchor="start" font-family="Arial, sans-serif" font-weight="normal">-0.42</text><text x="860" y="464" font-size="12" text-anchor="end" font-family="Arial, sans-serif" font-weight="normal">0.66</text><text x="450.0" y="500" font-size="14" text-anchor="middle" font-family="Arial, sans-serif" font-weight="normal">Reward Delta</text><text x="24" y="260.0" font-size="14" text-anchor="middle" font-family="Arial, sans-serif" font-weight="normal">Task Count</text></svg>