<svg xmlns="http://www.w3.org/2000/svg" width="980" height="520" viewBox="0 0 980 520"><rect x="0" y="0" width="980" height="520" fill="white"/><text x="490.0" y="30" font-size="20" text-anchor="middle" font-family="Arial, sans-serif" font-weight="bold">Exact Success Rate By Split And Profile</text><text x="30" y="260.0" font-size="14" text-anchor="middle" font-family="Arial, sans-serif" font-weight="normal">Exact Success Rate</text><line x1="90" y1="60" x2="90" y2="440" stroke="#444"/><line x1="90" y1="440" x2="940" y2="440" stroke="#444"/><text x="196.25" y="464" font-size="12" text-anchor="middle" font-family="Arial, sans-serif" font-weight="normal">Split 1</text><rect x="132.5" y="326.0" width="59.5" height="114.0" fill="#2a9d8f"/><text x="162.25" y="318.0" font-size="10" text-anchor="middle" font-family="Arial, sans-serif" font-weight="normal">0.30</text><rect x="209.9" y="338.7" width="59.5" height="101.3" fill="#e76f51"/><text x="239.60000000000002" y="330.6666666666667" font-size="10" text-anchor="middle" font-family="Arial, sans-serif" font-weight="normal">0.27</text><text x="408.75" y="464" font-size="12" text-anchor="middle" font-family="Arial, sans-serif" font-weight="normal">Split 2</text><rect x="345.0" y="267.9" width="59.5" height="172.1" fill="#2a9d8f"/><text x="374.75" y="259.92452830188677" font-size="10" text-anchor="middle" font-family="Arial, sans-serif" font-weight="normal">0.45</text><rect x="422.4" y="339.6" width="59.5" height="100.4" fill="#e76f51"/><text x="452.1" y="331.62264150943395" font-size="10" text-anchor="middle" font-family="Arial, sans-serif" font-weight="normal">0.26</text><text x="621.25" y="464" font-size="12" text-anchor="middle" font-family="Arial, sans-serif" font-weight="normal">Split 3</text><rect x="557.5" y="281.7" width="59.5" height="158.3" fill="#2a9d8f"/><text x="587.25" y="273.66666666666663" font-size="10" text-anchor="middle" font-family="Arial, sans-serif" font-weight="normal">0.42</text><rect x="634.9" y="319.7" width="59.5" height="120.3" fill="#e76f51"/><text x="664.6" y="311.6666666666667" font-size="10" text-anchor="middle" font-family="Arial, sans-serif" font-weight="normal">0.32</text><text x="833.75" y="464" font-size="12" text-anchor="middle" font-family="Arial, sans-serif" font-weight="normal">Split 4</text><rect x="770.0" y="299.3" width="59.5" height="140.7" fill="#2a9d8f"/><text x="799.75" y="291.25925925925924" font-size="10" text-anchor="middle" font-family="Arial, sans-serif" font-weight="normal">0.37</text><rect x="847.4" y="313.3" width="59.5" height="126.7" fill="#e76f51"/><text x="877.1" y="305.33333333333337" font-size="10" text-anchor="middle" font-family="Arial, sans-serif" font-weight="normal">0.33</text><rect x="790" y="60" width="14" height="14" fill="#2a9d8f"/><text x="815" y="72" font-size="12" text-anchor="start" font-family="Arial, sans-serif" font-weight="normal">ROOT</text><rect x="790" y="84" width="14" height="14" fill="#e76f51"/><text x="815" y="96" font-size="12" text-anchor="start" font-family="Arial, sans-serif" font-weight="normal">STRICT</text></svg>