<svg xmlns="http://www.w3.org/2000/svg" width="980" height="560" viewBox="0 0 980 560"><rect x="0" y="0" width="980" height="560" fill="white"/><text x="490.0" y="30" font-size="20" text-anchor="middle" font-family="Arial, sans-serif" font-weight="bold">Outcome Buckets By Profile</text><line x1="90" y1="60" x2="90" y2="480" stroke="#444"/><line x1="90" y1="480" x2="940" y2="480" stroke="#444"/><rect x="217.5" y="480.0" width="170.0" height="0.0" fill="#2a9d8f"/><rect x="217.5" y="480.0" width="170.0" height="0.0" fill="#8ecae6"/><rect x="217.5" y="480.0" width="170.0" height="0.0" fill="#e76f51"/><rect x="217.5" y="480.0" width="170.0" height="0.0" fill="#f4a261"/><rect x="217.5" y="480.0" width="170.0" height="0.0" fill="#ffb703"/><rect x="217.5" y="480.0" width="170.0" height="0.0" fill="#6d597a"/><rect x="217.5" y="480.0" width="170.0" height="0.0" fill="#9d0208"/><text x="302.5" y="504" font-size="12" text-anchor="middle" font-family="Arial, sans-serif" font-weight="normal">ROOT</text><rect x="642.5" y="400.8" width="170.0" height="79.2" fill="#2a9d8f"/><rect x="642.5" y="305.7" width="170.0" height="95.1" fill="#8ecae6"/><rect x="642.5" y="107.5" width="170.0" height="198.1" fill="#e76f51"/><rect x="642.5" y="75.8" width="170.0" height="31.7" fill="#f4a261"/><rect x="642.5" y="60.0" width="170.0" height="15.8" fill="#ffb703"/><rect x="642.5" y="60.0" width="170.0" height="0.0" fill="#6d597a"/><rect x="642.5" y="60.0" width="170.0" height="0.0" fill="#9d0208"/><text x="727.5" y="504" font-size="12" text-anchor="middle" font-family="Arial, sans-serif" font-weight="normal">STRICT</text><rect x="760" y="60" width="14" height="14" fill="#2a9d8f"/><text x="780" y="72" font-size="11" text-anchor="start" font-family="Arial, sans-serif" font-weight="normal">exact_success</text><rect x="760" y="82" width="14" height="14" fill="#8ecae6"/><text x="780" y="94" font-size="11" text-anchor="start" font-family="Arial, sans-serif" font-weight="normal">near_miss</text><rect x="760" y="104" width="14" height="14" fill="#e76f51"/><text x="780" y="116" font-size="11" text-anchor="start" font-family="Arial, sans-serif" font-weight="normal">permission_denied</text><rect x="760" y="126" width="14" height="14" fill="#f4a261"/><text x="780" y="138" font-size="11" text-anchor="start" font-family="Arial, sans-serif" font-weight="normal">missing_path</text><rect x="760" y="148" width="14" height="14" fill="#ffb703"/><text x="780" y="160" font-size="11" text-anchor="start" font-family="Arial, sans-serif" font-weight="normal">syntax_or_parse</text><rect x="760" y="170" width="14" height="14" fill="#6d597a"/><text x="780" y="182" font-size="11" text-anchor="start" font-family="Arial, sans-serif" font-weight="normal">semantic_miss</text><rect x="760" y="192" width="14" height="14" fill="#9d0208"/><text x="780" y="204" font-size="11" text-anchor="start" font-family="Arial, sans-serif" font-weight="normal">infra_error</text></svg>